<?xml version="1.0" encoding="UTF-8"?>
<svg width="62px" height="48px" viewBox="0 0 62 48" version="1.1" xmlns="http://www.w3.org/2000/svg" xmlns:xlink="http://www.w3.org/1999/xlink">
    <!-- Generator: sketchtool 56.2 (101010) - https://sketch.com -->
    <title>E1ABB374-54A9-41F5-ABDC-AC92BBD74C4F</title>
    <desc>Created with sketchtool.</desc>
    <g id="Design" stroke="none" stroke-width="1" fill="none" fill-rule="evenodd">
        <g id="Home" transform="translate(-649.000000, -1838.000000)">
            <g id="Group-6" transform="translate(618.000000, 1800.000000)">
                <g id="Icon/64px/1-Copy" transform="translate(30.000000, 30.000000)">
                    <rect id="Invisible-frame" x="0" y="0" width="64" height="64"></rect>
                    <path d="M57,9 C60.309,9 63,11.691 63,15 C63,18.309 60.309,21 57,21 C54.033,21 51.568,18.833 51.09,16 L39,16 L39,21 C39,21.552 38.552,22 38,22 L26,22 C25.448,22 25,21.552 25,21 L25,16 L12.91,16 C12.431,18.833 9.967,21 7,21 C3.691,21 1,18.309 1,15 C1,11.691 3.691,9 7,9 C9.967,9 12.432,11.167 12.91,14 L25,14 L25,9 C25,8.448 25.448,8 26,8 L38,8 C38.552,8 39,8.448 39,9 L39,14 L51.09,14 C51.568,11.167 54.033,9 57,9 Z M9,41 C9,31.74 14.639,23.418 23,19.85 L23,22.039 C15.798,25.47 11,32.836 11,41 L11,42 L16,42 C16.552,42 17,42.448 17,43 L17,55 C17,55.552 16.552,56 16,56 L4,56 C3.448,56 3,55.552 3,55 L3,43 C3,42.448 3.448,42 4,42 L9,42 L9,41 Z M55,41 L55,42 L60,42 C60.552,42 61,42.448 61,43 L61,55 C61,55.552 60.552,56 60,56 L48,56 C47.448,56 47,55.552 47,55 L47,43 C47,42.448 47.448,42 48,42 L53,42 L53,41 C53,32.836 48.202,25.47 41,22.039 L41,19.85 C49.361,23.418 55,31.74 55,41 Z" id="Combined-Shape" fill="#C60779"></path>
                </g>
            </g>
        </g>
    </g>
</svg>