<?xml version="1.0" encoding="UTF-8"?>
<svg width="47px" height="64px" viewBox="0 0 47 64" version="1.1" xmlns="http://www.w3.org/2000/svg" xmlns:xlink="http://www.w3.org/1999/xlink">
    <!-- Generator: sketchtool 56.2 (101010) - https://sketch.com -->
    <title>2A899132-E4C1-4BB2-B4B3-290922BFD807</title>
    <desc>Created with sketchtool.</desc>
    <g id="Design" stroke="none" stroke-width="1" fill="none" fill-rule="evenodd">
        <g id="Home" transform="translate(-315.000000, -1830.000000)">
            <g id="Group-4" transform="translate(276.000000, 1800.000000)">
                <g id="Icon/64px/1" transform="translate(30.000000, 30.000000)">
                    <rect id="Invisible-frame" x="0" y="0" width="64" height="64"></rect>
                    <path d="M17.7272727,11.6363636 L46.8181818,11.6363636 L46.8181818,17.4545455 L52.6363636,17.4545455 L52.6363636,5.81818182 C52.6363636,2.61818182 50.0181818,0.0290909091 46.8181818,0.0290909091 L17.7272727,0 C14.5272727,0 11.9090909,2.61818182 11.9090909,5.81818182 L11.9090909,17.4545455 L17.7272727,17.4545455 L17.7272727,11.6363636 Z M42.1927273,45.3527273 L55.5454545,32 L42.1927273,18.6472727 L38.0909091,22.7781818 L47.3127273,32 L38.0909091,41.2218182 L42.1927273,45.3527273 Z M26.4545455,41.2218182 L17.2327273,32 L26.4545455,22.7781818 L22.3527273,18.6472727 L9,32 L22.3527273,45.3527273 L26.4545455,41.2218182 Z M46.8181818,52.3636364 L17.7272727,52.3636364 L17.7272727,46.5454545 L11.9090909,46.5454545 L11.9090909,58.1818182 C11.9090909,61.3818182 14.5272727,64 17.7272727,64 L46.8181818,64 C50.0181818,64 52.6363636,61.3818182 52.6363636,58.1818182 L52.6363636,46.5454545 L46.8181818,46.5454545 L46.8181818,52.3636364 Z" id="Shape" fill="#C60779"></path>
                </g>
            </g>
        </g>
    </g>
</svg>