<?xml version="1.0" encoding="UTF-8"?>
<svg width="22px" height="22px" viewBox="0 0 22 22" version="1.1" xmlns="http://www.w3.org/2000/svg" xmlns:xlink="http://www.w3.org/1999/xlink">
    <!-- Generator: sketchtool 56.2 (101010) - https://sketch.com -->
    <title>076CF889-B6A6-4D34-801D-2661975210BE</title>
    <desc>Created with sketchtool.</desc>
    <g id="Design" stroke="none" stroke-width="1" fill="none" fill-rule="evenodd">
        <g id="Home" transform="translate(-636.000000, -4807.000000)">
            <g id="Group-3" transform="translate(0.000000, 4766.000000)">
                <g id="Group-2" transform="translate(563.000000, 40.000000)">
                    <g id="Icon/32px/Instagram" transform="translate(72.000000, 0.000000)">
                        <rect id="Invisible-frame" x="0" y="0" width="24" height="24"></rect>
                        <path d="M11.9999998,9.39599991 C10.5618504,9.39599991 9.39599991,10.5618504 9.39599991,11.9999998 C9.39599991,13.4381493 10.5618504,14.6039997 11.9999998,14.6039997 C13.4381493,14.6039997 14.6039997,13.4381493 14.6039997,11.9999998 C14.6039997,11.3093761 14.3296505,10.6470385 13.8413058,10.1586938 C13.3529611,9.67034911 12.6906235,9.39599991 11.9999998,9.39599991 Z M22.4265,6.8235 C22.420976,6.01264592 22.271663,5.20919993 21.9855,4.4505 C21.5591994,3.3275181 20.6724819,2.4408006 19.5495,2.0145 C18.7908001,1.72833698 17.9873541,1.57902401 17.1765,1.5735 C15.822,1.5 15.423,1.5 12,1.5 C8.577,1.5 8.178,1.5 6.8235,1.5735 C6.01264592,1.57902401 5.20919993,1.72833698 4.4505,2.0145 C3.3275181,2.4408006 2.4408006,3.3275181 2.0145,4.4505 C1.72833698,5.20919993 1.57902401,6.01264592 1.5735,6.8235 C1.5,8.178 1.5,8.577 1.5,12 C1.5,15.423 1.5,15.822 1.5735,17.1765 C1.58480214,17.9902074 1.73391302,18.7961162 2.0145,19.56 C2.22431944,20.1126373 2.55013511,20.6138922 2.97,21.03 C3.38810316,21.4524228 3.89335879,21.7785098 4.4505,21.9855 C5.20919993,22.271663 6.01264592,22.420976 6.8235,22.4265 C8.178,22.5 8.577,22.5 12,22.5 C15.423,22.5 15.822,22.5 17.1765,22.4265 C17.9873541,22.420976 18.7908001,22.271663 19.5495,21.9855 C20.1066412,21.7785098 20.6118968,21.4524228 21.03,21.03 C21.4498649,20.6138922 21.7756806,20.1126373 21.9855,19.56 C22.2713864,18.7975781 22.4206695,17.9907384 22.4265,17.1765 C22.5,15.822 22.5,15.423 22.5,12 C22.5,8.577 22.5,8.178 22.4265,6.8235 Z M19.7594998,15.2235 C19.725804,15.8714594 19.5875181,16.5097021 19.3499998,17.1135 C18.9381576,18.1311262 18.131126,18.9381577 17.1134999,19.35 C16.5039875,19.5742739 15.8621828,19.6983798 15.2129999,19.7175 L8.78699994,19.7175 C8.13781697,19.6983798 7.49601231,19.5742739 6.88649996,19.35 C6.36580826,19.1565045 5.89559065,18.8478121 5.51099997,18.447 C5.13054971,18.0703139 4.83673621,17.6152613 4.64999998,17.1135 C4.42483501,16.5046214 4.30413714,15.8620827 4.29299998,15.213 L4.29299998,12 L4.29299998,8.78700001 C4.30413714,8.13791728 4.42483501,7.49537863 4.64999998,6.88650002 C4.8434954,6.36580832 5.15218788,5.89559071 5.55299997,5.51100002 C5.93134986,5.13260463 6.38592674,4.8390983 6.88649996,4.65000003 C7.49601231,4.42572611 8.13781697,4.30162024 8.78699994,4.28250003 L15.2129999,4.28250003 C15.8621828,4.30162024 16.5039875,4.42572611 17.1134999,4.65000003 C17.6341915,4.84349545 18.1044092,5.15218793 18.4889998,5.55300002 C18.8694501,5.92968611 19.1632636,6.38473873 19.3499998,6.88650002 C19.5742737,7.49601238 19.6983796,8.13781704 19.7174998,8.78700001 L19.7174998,12 C19.7174998,14.163 19.7909998,14.3835 19.7594998,15.213 L19.7594998,15.2235 Z M18.0794998,7.41150004 C17.8264893,6.72508818 17.2854117,6.18401046 16.5989998,5.93099997 C16.1332959,5.76957327 15.6428126,5.69138026 15.1499998,5.69999996 L8.84999989,5.69999996 C8.35468029,5.70484125 7.86412218,5.79726525 7.4009999,5.97299997 C6.72539669,6.2144128 6.18613753,6.73454933 5.92049991,7.40100004 C5.76801533,7.86863507 5.69352015,8.35817486 5.69999991,8.85000011 L5.69999991,15.1500004 C5.71040971,15.6447567 5.8026569,16.1343765 5.97299991,16.5990005 C6.22601038,17.2854123 6.76708807,17.8264901 7.4534999,18.0795005 C7.90149949,18.2442595 8.37293537,18.3364199 8.84999989,18.3525006 L15.1499998,18.3525006 C15.6453194,18.3476593 16.1358775,18.2552353 16.5989998,18.0795005 C17.2854117,17.8264901 17.8264893,17.2854123 18.0794998,16.5990005 C18.2552345,16.1358782 18.3476585,15.64532 18.3525006,15.1500004 L18.3525006,12.0000003 L18.3525006,8.85000011 C18.352804,8.35418811 18.2602064,7.86270856 18.0794998,7.40100004 L18.0794998,7.41150004 Z M11.9999996,16.011014 C10.9371793,16.011014 9.91804206,15.5880827 9.16750025,14.8355709 C8.41695844,14.0830591 7.99671021,13.0628167 7.99948597,12 C7.99948597,10.3767476 8.97789406,8.91353146 10.4779915,8.2933251 C11.9780889,7.67311875 13.7041121,8.01821178 14.8504195,9.16752794 C15.9967269,10.3168441 16.3372944,12.0437661 15.7131581,13.5422328 C15.0890219,15.0406995 13.6232463,16.0152495 11.9999996,16.011014 Z M16.2000003,8.77650011 C15.719284,8.7256159 15.3544736,8.32015195 15.3544736,7.83675009 C15.3544736,7.35334823 15.719284,6.94788428 16.2000003,6.89700007 C16.6807166,6.94788428 17.045527,7.35334823 17.045527,7.83675009 C17.045527,8.32015195 16.6807166,8.7256159 16.2000003,8.77650011 Z" id="Shape" fill="#FDFDFD"></path>
                    </g>
                </g>
            </g>
        </g>
    </g>
</svg>