<?xml version="1.0" encoding="UTF-8"?>
<svg width="24px" height="20px" viewBox="0 0 24 20" version="1.1" xmlns="http://www.w3.org/2000/svg" xmlns:xlink="http://www.w3.org/1999/xlink">
    <!-- Generator: sketchtool 56.2 (101010) - https://sketch.com -->
    <title>BDAD079D-CF7E-4365-B70B-18FD137E4B5A</title>
    <desc>Created with sketchtool.</desc>
    <g id="Design" stroke="none" stroke-width="1" fill="none" fill-rule="evenodd">
        <g id="Home" transform="translate(-707.000000, -4808.000000)">
            <g id="Group-3" transform="translate(0.000000, 4766.000000)">
                <g id="Group-2" transform="translate(563.000000, 40.000000)">
                    <g id="Icon/32px/Twitter" transform="translate(144.000000, 0.000000)">
                        <rect id="Invisible-frame" x="0" y="0" width="24" height="24"></rect>
                        <path d="M23.3400012,2.61000567 C22.3730145,3.18334065 21.3153642,3.58763187 20.212501,3.80550565 C19.2818912,2.81126327 17.9803189,2.24793673 16.6185008,2.25 C15.115116,2.24949552 13.6938481,2.93575026 12.759331,4.11339361 C11.824814,5.29103697 11.4794266,6.831055 11.8215006,8.29500558 C7.86202069,8.09660963 4.17296131,6.22645402 1.67250008,3.15000566 C1.23426066,3.90106131 1.00435346,4.75544611 1.00650005,5.62500562 C1.00526542,7.27128422 1.8271315,8.80918694 3.19650016,9.72300556 C2.41446539,9.69710739 1.64985454,9.48525827 0.966000049,9.10500557 L0.966000049,9.16650557 C0.967044174,11.510317 2.6184335,13.5292391 4.91550025,13.9950055 C4.19013168,14.1924303 3.42919182,14.2211643 2.69100014,14.0790055 C3.33598072,16.0844209 5.18380624,17.4585376 7.29000037,17.4990054 C5.54565223,18.8676747 3.39170425,19.6099599 1.17450006,19.6065054 C0.777000039,19.6065054 0.385500019,19.5825054 0,19.5375054 C2.25151845,20.9841231 4.87180277,21.7521913 7.54800038,21.75001 C16.6050008,21.75001 21.5580011,14.2470055 21.5580011,7.74000559 C21.5580011,7.52700559 21.5535011,7.3140056 21.5430011,7.1025056 C22.5089294,6.40829363 23.342183,5.54607942 24.0030012,4.55700564 C23.1045551,4.95536307 22.1514616,5.21676852 21.1755011,5.33250563 C22.2032543,4.71748852 22.9724921,3.74994414 23.3400012,2.61000567 L23.3400012,2.61000567 Z" id="Path" fill="#FDFDFD"></path>
                    </g>
                </g>
            </g>
        </g>
    </g>
</svg>