<?xml version="1.0" encoding="UTF-8"?>
<svg width="67px" height="36px" viewBox="0 0 67 36" version="1.1" xmlns="http://www.w3.org/2000/svg" xmlns:xlink="http://www.w3.org/1999/xlink">
    <!-- Generator: sketchtool 56.2 (101010) - https://sketch.com -->
    <title>4A9C8CE9-7C47-4CFA-8B06-B723252B7F91</title>
    <desc>Created with sketchtool.</desc>
    <g id="Design" stroke="none" stroke-width="1" fill="none" fill-rule="evenodd">
        <g id="Home" transform="translate(-650.000000, -4915.000000)" fill="#FFFFFF" fill-rule="nonzero">
            <g id="Group-3" transform="translate(0.000000, 4766.000000)">
                <g id="Logo/Original-Logo/White" transform="translate(646.000000, 145.000000)">
                    <path d="M56.8409045,4.4 L70.2910368,4.4 L63.9609801,32.4364917 C63.0349995,36.5370294 59.3833439,39.4498109 55.1692346,39.4493198 L4.40000018,39.4493198 L10.7275804,11.4214738 C11.6537035,7.31615978 15.3091815,4.39961006 19.5279938,4.4 L56.8409045,4.4 Z M27.4096079,17.0757048 L22.5109958,25.3050944 L21.1612771,17.2634382 C20.9289561,15.8784709 19.7272795,14.8636627 18.3194382,14.8636627 L15.7921209,14.8636627 L18.8717084,28.158147 C19.1117127,29.1934405 20.0352528,29.9273009 21.1006017,29.9292628 L22.6162491,29.9292628 C23.398122,29.9288667 24.1273447,29.5361832 24.5566245,28.8843786 L33.7916723,14.8636627 L31.305218,14.8636627 C29.7064638,14.8642653 28.2262345,15.704783 27.4096079,17.0757048 Z M32.4456667,29.9292639 L34.3550851,29.9292639 C35.9039968,29.9283971 37.241206,28.8469633 37.5622147,27.3355796 L40.2257419,14.8611933 L38.5119708,14.8611933 C36.8493888,14.8610201 35.4131716,16.0206315 35.0670926,17.6426109 L32.4456667,29.9292639 Z M60.3167391,14.8636627 L55.779703,14.8636627 C54.614338,14.8645474 53.4821322,15.2506785 52.5601906,15.9616557 L46.5062688,20.6315223 L47.7296836,14.8636627 L45.4871693,14.8636627 C44.131227,14.864466 42.9604723,15.8108108 42.6787638,17.1337539 L39.954561,29.9317326 L41.6386136,29.9317326 C43.3182391,29.9319263 44.7688316,28.7596041 45.1169254,27.120673 L45.4599273,25.515059 C45.6332856,24.8563456 45.8070568,24.1943386 45.9812406,23.529038 L49.9721978,28.3187081 C50.8239977,29.3415105 52.0877149,29.9334992 53.420791,29.9342028 L57.3597407,29.9342028 C54.9995904,27.3125233 52.6386146,24.6912555 50.2768132,22.0703994 L60.3167391,14.8636627 Z" id="Combined-Shape"></path>
                </g>
            </g>
        </g>
    </g>
</svg>