<?xml version="1.0" encoding="UTF-8"?>
<svg width="60px" height="32px" viewBox="0 0 60 32" version="1.1" xmlns="http://www.w3.org/2000/svg" xmlns:xlink="http://www.w3.org/1999/xlink">
    <!-- Generator: sketchtool 56.2 (101010) - https://sketch.com -->
    <title>87705394-7D70-4AA0-9A63-404787D30BE3</title>
    <desc>Created with sketchtool.</desc>
    <g id="Design" stroke="none" stroke-width="1" fill="none" fill-rule="evenodd">
        <g id="Home" transform="translate(-117.000000, -24.000000)" fill="#FFFFFF" fill-rule="nonzero">
            <g id="Logo/Original-Logo/White" transform="translate(113.000000, 20.000000)">
                <path d="M51.673546,4 L63.9009381,4 L58.1463415,29.4877193 C57.304541,33.2154809 53.9848543,35.863464 50.1538462,35.8630175 L4,35.8630175 L9.75234522,10.3831579 C10.5942752,6.6510543 13.9174369,3.99964551 17.7527205,4 L51.673546,4 Z M24.9178236,15.5233684 L20.4645403,23.0046316 L19.2375235,15.6940351 C19.0263225,14.4349739 17.9338894,13.5124211 16.6540338,13.5124211 L14.3564728,13.5124211 L17.1560976,25.5983158 C17.3742832,26.5394917 18.2138651,27.2066375 19.182364,27.2084211 L20.5602251,27.2084211 C21.2710186,27.2080609 21.9339483,26.851076 22.3242026,26.2585263 L30.7196998,13.5124211 L28.4592871,13.5124211 C27.0058743,13.5129688 25.6602114,14.2770759 24.9178236,15.5233684 Z M29.49606,27.2084211 L31.2318949,27.2084211 C32.6399964,27.2076331 33.8556411,26.2245114 34.1474672,24.8505263 L36.5688555,13.5101754 L35.0108818,13.5101754 C33.4994437,13.510018 32.1937917,14.5642102 31.8791745,16.0387368 L29.49606,27.2084211 Z M54.8333959,13.5124211 L50.708818,13.5124211 C49.6493953,13.5132253 48.6201175,13.8642536 47.7819887,14.5105965 L42.278424,18.7559298 L43.3906191,13.5124211 L41.35197,13.5124211 C40.1192953,13.5131513 39.0549729,14.3734648 38.7988743,15.5761404 L36.3223265,27.2106667 L37.8532833,27.2106667 C39.3802154,27.2108428 40.6989358,26.1450953 41.0153846,24.6551579 L41.3272045,23.1955088 C41.484803,22.5966784 41.6427767,21.9948538 41.8011257,21.3900351 L45.4292683,25.7442807 C46.2036318,26.6741011 47.3524654,27.2122727 48.5643527,27.2129123 L52.1452158,27.2129123 C49.9996248,24.8295673 47.8532833,22.4465965 45.7061914,20.064 L54.8333959,13.5124211 Z" id="Combined-Shape"></path>
            </g>
        </g>
    </g>
</svg>