<?xml version="1.0" encoding="UTF-8"?>
<svg width="24px" height="18px" viewBox="0 0 24 18" version="1.1" xmlns="http://www.w3.org/2000/svg" xmlns:xlink="http://www.w3.org/1999/xlink">
    <!-- Generator: sketchtool 56.2 (101010) - https://sketch.com -->
    <title>76010E4D-6F64-4CD0-951A-8A465EA03B95</title>
    <desc>Created with sketchtool.</desc>
    <g id="Design" stroke="none" stroke-width="1" fill="none" fill-rule="evenodd">
        <g id="Home" transform="translate(-779.000000, -4809.000000)">
            <g id="Group-3" transform="translate(0.000000, 4766.000000)">
                <g id="Group-2" transform="translate(563.000000, 40.000000)">
                    <g id="Icon/32px/Youtube" transform="translate(216.000000, 0.000000)">
                        <rect id="Invisible-frame" x="0" y="0" width="24" height="24"></rect>
                        <path d="M20.6346009,4.06264009 C15.2013422,3.69724113 8.75988063,3.59731569 3.22669647,4.06264009 C1.50857568,4.25503383 0.331841907,6.34601076 0.203579417,7.93437768 C-0.0678598056,11.2706939 -0.0678598056,13.1692771 0.203579417,16.5055934 C0.333333331,18.0939603 1.48023862,20.1968686 3.2281879,20.4175994 C8.82699472,20.7844898 15.2356449,20.8351983 20.6360923,20.4175994 C22.3273675,20.1237888 23.5309469,18.0939603 23.6607008,16.5055934 C23.93214,13.1692771 23.93214,11.063386 23.6607008,7.72557828 C23.5294555,6.13721135 22.5809096,4.13422846 20.6346009,4.06264009 Z M8.94779992,16.4519019 L8.94779992,7.89858341 L16.4049218,12.1759884 L8.94779992,16.4519019 L8.94779992,16.4519019 Z" id="Shape" fill="#FDFDFD"></path>
                    </g>
                </g>
            </g>
        </g>
    </g>
</svg>